<svg xmlns="http://www.w3.org/2000/svg" viewBox="0 0 20 20" fill="currentColor">
  <path fill-rule="evenodd" d="M1 5.5A2.5 2.5 0 0 1 3.5 3h10A2.5 2.5 0 0 1 16 5.5v2.501a1 1 0 0 1-.5.867l-2.09 1.207a1 1 0 0 0-.41.8V14.5a1.5 1.5 0 0 1-1.5 1.5h-1.5a1.5 1.5 0 0 1-1.5-1.5v-1h-1v1a1.5 1.5 0 0 1-1.5 1.5H5a1.5 1.5 0 0 1-1.5-1.5v-3.617a1 1 0 0 0-.41-.8L1.5 8.868A1 1 0 0 1 1 8.001V5.5Zm4.5 1a.5.5 0 0 0 0 1h6a.5.5 0 0 0 0-1h-6Z" clip-rule="evenodd"/>
  <path d="M4 18a1 1 0 1 0 0-2 1 1 0 0 0 0 2Zm8 0a1 1 0 1 0 0-2 1 1 0 0 0 0 2Z"/>
</svg>