<svg xmlns="http://www.w3.org/2000/svg" viewBox="0 0 20 20" fill="currentColor">
  <path fill-rule="evenodd" d="M5.78 3.22a.75.75 0 0 1 .53.22l3.47 3.47a.75.75 0 0 1 0 1.06l-1.72 1.72a3 3 0 0 0-1.28 2.2L6.03 15a4.5 4.5 0 0 1-3.18 3.97A.75.75 0 0 1 2 18.22v-2.47a.75.75 0 0 1 .1-.36L3.9 11.7A4.5 4.5 0 0 1 6 9.05l1.72-1.72a.75.75 0 0 1 1.06 0l3.47 3.47a.75.75 0 0 1 .22.53v4.95a.75.75 0 0 1-.75.75h-7.5a.75.75 0 0 1 0-1.5h6v-4.22l-2.72-2.72a3 3 0 0 0-4.24 0L3.72 9.22a.75.75 0 0 1-1.06 0L1.22 7.78a.75.75 0 0 1 0-1.06l3.47-3.47a.75.75 0 0 1 .53-.22Zm9.28 3.97a.75.75 0 0 1 0 1.06L13.34 10l1.72 1.72a.75.75 0 1 1-1.06 1.06L12.28 11.06l-1.72 1.72a.75.75 0 1 1-1.06-1.06L11.22 10l-1.72-1.72a.75.75 0 0 1 1.06-1.06L12.28 8.94l1.72-1.72a.75.75 0 0 1 1.06 0Z" clip-rule="evenodd" />
</svg>