<svg xmlns="http://www.w3.org/2000/svg" viewBox="0 0 20 20" fill="currentColor" class="w-5 h-5">
  <path d="M18.5 3.5a1.5 1.5 0 0 0-1.5-1.5H6.663a1.5 1.5 0 0 0-1.413 1.016L3.5 7.131v6.885a1.5 1.5 0 0 0 1.45 1.491l.05.009h8.5a1.5 1.5 0 0 0 1.5-1.5V7.77l2.438-2.844A1.5 1.5 0 0 0 18.5 3.5ZM9 8.5a1 1 0 1 1-2 0 1 1 0 0 1 2 0ZM13 8.5a1 1 0 1 1-2 0 1 1 0 0 1 2 0Z" />
  <path fill-rule="evenodd" d="M5 16.5a.5.5 0 0 1-.5-.5v-1a.5.5 0 0 1 1 0v1a.5.5 0 0 1-.5.5Zm5 0a.5.5 0 0 1-.5-.5v-1a.5.5 0 0 1 1 0v1a.5.5 0 0 1-.5.5Zm5 0a.5.5 0 0 1-.5-.5v-1a.5.5 0 0 1 1 0v1a.5.5 0 0 1-.5.5Z" clip-rule="evenodd" />
</svg>