<svg xmlns="http://www.w3.org/2000/svg" viewBox="0 0 20 20" fill="currentColor">
  <path fill-rule="evenodd" d="M16.5 4.232a2.5 2.5 0 0 0-4.08-.21l-1.99 2.986a.5.5 0 0 1-.47.292H5.04a2.5 2.5 0 0 0-2.498 2.211l-.43 3.08A2.5 2.5 0 0 0 4.608 16h10.784a2.5 2.5 0 0 0 2.498-2.789l-.43-3.08a2.5 2.5 0 0 0-2.498-2.211h-1.96a.5.5 0 0 1-.47-.292l-1.99-2.986A2.5 2.5 0 0 0 10 3a2.5 2.5 0 0 0-.42.024L7.18 3.7a.5.5 0 0 0-.47.492V4.5a.5.5 0 0 0 .5.5h4.58a.5.5 0 0 1 .47.292l1.99 2.986A2.5 2.5 0 0 0 16.5 10.5h1.46a2.5 2.5 0 0 0 2.498-2.211l.43-3.08A2.5 2.5 0 0 0 18.39 2.42L16.5 4.232ZM4 18a1 1 0 1 0 0-2 1 1 0 0 0 0 2Zm12 0a1 1 0 1 0 0-2 1 1 0 0 0 0 2Z" clip-rule="evenodd" />
  <path d="M10.5 3.5h-1a.5.5 0 0 0-.5.5v1a.5.5 0 0 0 .5.5h1a.5.5 0 0 0 .5-.5v-1a.5.5 0 0 0-.5-.5Z" />
</svg>